<?xml version="1.0" encoding="utf-8"?>
<!-- Generator: Adobe Illustrator 21.1.0, SVG Export Plug-In . SVG Version: 6.00 Build 0)  -->
<svg version="1.1" id="Layer_2" xmlns="http://www.w3.org/2000/svg" xmlns:xlink="http://www.w3.org/1999/xlink" x="0px" y="0px"
	 viewBox="0 0 612 792" style="enable-background:new 0 0 612 792;" xml:space="preserve">
<style type="text/css">
	.st0{fill:#FFFFFF;}
	.st1{fill:#E8E6E6;}
</style>
<path class="st0" d="M27,161l53,563l226.5,61L530,725l56-564H27z M473,342l-164,69h160l-19,214l-143.5,43L164,626l-9-107h72l3,55
	l76,19l78-24l5-87H148l-6-68l167-71H137l-8-68h349L473,342z"/>
<g>
	<polygon class="st1" points="389,482 306.3,482 306.4,592.9 384,569 	"/>
	<polygon class="st1" points="306.1,343 306.1,344.2 309,343 	"/>
	<polygon class="st1" points="306,206 306.1,275 478,275 473,342 309,411 469,411 450,625 306.5,668 306.4,668 306.5,736 490,688 
		531,206 	"/>
</g>
<polygon id="c" class="st0" points="141,6 226.7,6 226.7,42.7 179.3,42.7 179.3,74 226.7,74 226.7,111.3 141,111.3 "/>
<polygon id="s1" class="st0" points="348,6 264.7,6 264.7,42 299,76.3 264.7,76.3 264.7,111.3 348,111.3 348,80 309.2,41.2 
	348,41.2 "/>
<polygon id="s2" class="st0" points="471,6 387.7,6 387.7,42 422,76.3 387.7,76.3 387.7,111.3 471,111.3 471,80 432.2,41.2 
	471,41.2 "/>
</svg>
