<?xml version="1.0" encoding="utf-8"?>
<!-- Generator: Adobe Illustrator 21.1.0, SVG Export Plug-In . SVG Version: 6.00 Build 0)  -->
<svg version="1.1" id="Layer_1" xmlns="http://www.w3.org/2000/svg" xmlns:xlink="http://www.w3.org/1999/xlink" x="0px" y="0px"
	 viewBox="0 0 55 55" style="enable-background:new 0 0 55 55;" xml:space="preserve">
<style type="text/css">
	.st0{fill:#85201C;}
	.st1{fill:#FFFFFF;}
</style>
<g>
	<circle class="st0" cx="27.7" cy="27.9" r="24"/>
	<path id="path9-5_4_" class="st1" d="M17.1,27.7c0,0,0.5,1.2,0.5,1.2c1.2,2.2,3.6,3.6,7.6,4c-0.6,0.4-1.2,1.2-1.3,2.2
		c-0.7,0.5-2.1,0.6-3.3,0.3c-1.6-0.5-2.2-3.6-4.5-3.1c-0.5,0.1-0.4,0.4,0,0.7c0.7,0.5,1.4,1,1.9,2.3c0.4,0.9,1.2,2.6,3.9,2.6
		c1,0,1.8-0.1,1.8-0.1s0,2.4,0,3.3c0,1.1-1.5,1.4-1.5,1.9c0,0.2,0.5,0.2,0.9,0.2c0.8,0,2.4-0.6,2.4-1.8c0-0.9,0-3.9,0-4.4
		c0-1.1,0.6-1.5,0.6-1.5s0.1,6.1-0.1,6.9c-0.3,1-0.7,0.8-0.7,1.3c0,0.6,1.9,0.2,2.6-1.2c0.5-1.1,0.3-7.1,0.3-7.1l0.5,0
		c0,0,0,2.8,0,4c0,1.3-0.1,2.9,0.7,3.7c0.5,0.5,2.2,1.4,2.2,0.6c0-0.5-0.9-0.9-0.9-2.2v-5.9c0.7,0,0.6,1.9,0.6,1.9l0.1,3.6
		c0,0-0.2,1.3,1.4,1.9c0.6,0.2,1.8,0.2,1.8-0.1c0.1-0.3-1.4-0.8-1.5-1.8c0-0.6,0-1,0-3.7c0-2.7-0.4-3.7-1.6-4.5
		c3.9-0.4,6.3-1.4,7.5-4c0.1,0,0.5-1.2,0.4-1.2c0.3-1,0.4-2.1,0.4-3.5c0-3.7-1.8-5-2.1-5.6c0.5-2.8-0.1-4.1-0.4-4.5
		c-1-0.4-3.5,0.9-4.9,1.8c-2.2-0.6-6.9-0.6-8.7,0.2c-3.3-2.3-5-2-5-2s-1.1,2-0.3,4.9c-1.1,1.4-1.9,2.3-1.9,4.9
		C16.5,25.2,16.7,26.5,17.1,27.7L17.1,27.7z"/>
</g>
</svg>
