<?xml version="1.0" encoding="utf-8"?>
<!-- Generator: Adobe Illustrator 21.1.0, SVG Export Plug-In . SVG Version: 6.00 Build 0)  -->
<svg version="1.1" id="Layer_1" xmlns="http://www.w3.org/2000/svg" xmlns:xlink="http://www.w3.org/1999/xlink" x="0px" y="0px"
	 viewBox="0 0 55 55" style="enable-background:new 0 0 55 55;" xml:space="preserve">
<style type="text/css">
	.st0{fill:#85201C;}
	.st1{fill:#FFFFFF;}
</style>
<g>
	<circle class="st0" cx="27.7" cy="27.9" r="24"/>
	<g>
		<path class="st1" d="M36.9,12.9H18.5c-3.2,0-5.8,2.6-5.8,5.8v6.1v12.3c0,3.2,2.6,5.8,5.8,5.8h18.4c3.2,0,5.8-2.6,5.8-5.8V24.8
			v-6.1C42.7,15.5,40.1,12.9,36.9,12.9z M38.6,16.4l0.7,0V17v4.4l-5.1,0l0-5.1L38.6,16.4z M23.4,24.8c1-1.3,2.5-2.2,4.3-2.2
			c1.8,0,3.3,0.9,4.3,2.2c0.6,0.9,1,1.9,1,3.1c0,2.9-2.4,5.3-5.3,5.3c-2.9,0-5.3-2.4-5.3-5.3C22.4,26.8,22.8,25.7,23.4,24.8z
			 M39.8,37.1c0,1.6-1.3,2.9-2.9,2.9H18.5c-1.6,0-2.9-1.3-2.9-2.9V24.8h4.5c-0.4,1-0.6,2-0.6,3.1c0,4.5,3.7,8.2,8.2,8.2
			c4.5,0,8.2-3.7,8.2-8.2c0-1.1-0.2-2.1-0.6-3.1h4.5V37.1z"/>
	</g>
</g>
</svg>
